<svg width="48" height="48" xmlns="http://www.w3.org/2000/svg">

 <g>
  <title>background</title>
  <rect fill="none" id="canvas_background" height="402" width="582" y="-1" x="-1"/>
 </g>
 <g>
  <title>Layer 1</title>
  <path id="svg_1" fill="none" d="m0,0l48,0l0,48l-48,0l0,-48z"/>
  <path fill="#ffffff" id="svg_2" d="m24,16c2.21,0 4,-1.79 4,-4s-1.79,-4 -4,-4s-4,1.79 -4,4s1.79,4 4,4zm0,4c-2.21,0 -4,1.79 -4,4s1.79,4 4,4s4,-1.79 4,-4s-1.79,-4 -4,-4zm0,12c-2.21,0 -4,1.79 -4,4s1.79,4 4,4s4,-1.79 4,-4s-1.79,-4 -4,-4z"/>
 </g>
</svg>