<?xml version="1.0" standalone="no"?>
<!DOCTYPE svg PUBLIC "-//W3C//DTD SVG 20010904//EN"
 "http://www.w3.org/TR/2001/REC-SVG-20010904/DTD/svg10.dtd">
<svg version="1.0" xmlns="http://www.w3.org/2000/svg"
 width="159.000000pt" height="29.000000pt" viewBox="0 0 159.000000 29.000000"
 preserveAspectRatio="xMidYMid meet">
<metadata>
Created by potrace 1.16, written by Peter Selinger 2001-2019
</metadata>
<g transform="translate(0.000000,29.000000) scale(0.100000,-0.100000)"
fill="#000000" stroke="none">
<path d="M144 148 l-129 -133 50 -3 50 -4 92 96 c51 53 95 96 98 96 3 0 5 -18
5 -40 0 -40 0 -40 -38 -40 -29 0 -45 -7 -65 -28 -15 -15 -27 -31 -27 -35 0 -4
29 -7 65 -7 58 0 65 -2 65 -20 0 -16 7 -20 35 -20 l35 0 0 118 c0 135 -8 152
-72 152 -32 0 -47 -12 -164 -132z"/>
<path d="M410 137 c0 -78 3 -97 18 -110 17 -15 57 -17 369 -17 326 0 351 1
366 18 10 10 17 35 17 55 0 53 -26 67 -122 67 -45 0 -78 4 -78 10 0 6 38 10
95 10 l95 0 0 30 0 30 -114 0 c-107 0 -116 -1 -130 -22 -22 -31 -20 -74 4 -98
17 -17 33 -20 101 -20 60 0 80 -3 77 -12 -4 -10 -52 -14 -189 -16 -187 -3
-229 1 -229 18 0 6 38 10 90 10 l90 0 0 30 0 30 -90 0 c-53 0 -90 4 -90 10 0
6 37 10 90 10 l90 0 0 30 0 30 -102 0 c-57 0 -108 -4 -114 -8 -22 -14 -34 -52
-34 -106 l0 -56 -54 0 c-85 0 -86 1 -86 91 l0 79 -35 0 -35 0 0 -93z"/>
<path d="M1200 120 l0 -110 35 0 35 0 0 110 0 110 -35 0 -35 0 0 -110z"/>
<path d="M1316 208 c-22 -31 -20 -74 4 -98 17 -17 33 -20 101 -20 60 0 80 -3
77 -12 -3 -9 -36 -14 -106 -16 -101 -3 -102 -3 -102 -27 l0 -25 124 0 c142 0
156 6 156 70 0 56 -25 70 -122 70 -45 0 -78 4 -78 10 0 6 38 10 95 10 l95 0 0
30 0 30 -114 0 c-107 0 -116 -1 -130 -22z"/>
</g>
</svg>
