{
  "accessors": [
    {
      "bufferView": 2,
      "componentType": 5126,
      "count": 1684,
      "max": [
        138.65821838378906,
        34.395889282226562,
        49.133064270019531
      ],
      "min": [
        -77.880088806152344,
        -83.102783203125,
        -49.133064270019531
      ],
      "type": "VEC3"
    },
    {
      "bufferView": 2,
      "byteOffset": 20208,
      "componentType": 5126,
      "count": 1684,
      "max": [
        1,
        1,
        1
      ],
      "min": [
        -0.98976874351501465,
        -1,
        -1
      ],
      "type": "VEC3"
    },
    {
      "bufferView": 3,
      "componentType": 5126,
      "count": 1684,
      "max": [
        1,
        0.99794590473175049,
        1,
        1
      ],
      "min": [
        -0.99996531009674072,
        -1,
        -1,
        -1
      ],
      "type": "VEC4"
    },
    {
      "bufferView": 1,
      "componentType": 5126,
      "count": 1684,
      "max": [
        0.99799996614456177,
        0.99649173021316528
      ],
      "min": [
        0.0020000000949949026,
        0.0020000000949949026
      ],
      "type": "VEC2"
    },
    {
      "bufferView": 0,
      "componentType": 5125,
      "count": 5382,
      "max": [
        1683
      ],
      "min": [
        0
      ],
      "type": "SCALAR"
    },
    {
      "bufferView": 2,
      "byteOffset": 40416,
      "componentType": 5126,
      "count": 194,
      "max": [
        71.241134643554688,
        -74.602394104003906,
        44.4044189453125
      ],
      "min": [
        34.272945404052734,
        -112.33808135986328,
        -44.4044189453125
      ],
      "type": "VEC3"
    },
    {
      "bufferView": 2,
      "byteOffset": 42744,
      "componentType": 5126,
      "count": 194,
      "max": [
        0.80007874965667725,
        0.94049936532974243,
        0.99730122089385986
      ],
      "min": [
        -0.94049918651580811,
        -0.77206408977508545,
        -0.99730122089385986
      ],
      "type": "VEC3"
    },
    {
      "bufferView": 3,
      "byteOffset": 26944,
      "componentType": 5126,
      "count": 194,
      "max": [
        0.65949779748916626,
        0.96826225519180298,
        0.88319528102874756,
        1
      ],
      "min": [
        -0.86205035448074341,
        -0.89175862073898315,
        -0.88319528102874756,
        -1
      ],
      "type": "VEC4"
    },
    {
      "bufferView": 1,
      "byteOffset": 13472,
      "componentType": 5126,
      "count": 194,
      "max": [
        0.99335366487503052,
        0.59711700677871704
      ],
      "min": [
        0.77076500654220581,
        0.34014540910720825
      ],
      "type": "VEC2"
    },
    {
      "bufferView": 0,
      "byteOffset": 21528,
      "componentType": 5125,
      "count": 576,
      "max": [
        193
      ],
      "min": [
        0
      ],
      "type": "SCALAR"
    }
  ],
  "asset": {
    "extras": {
      "author": "Renafox (https://sketchfab.com/kryik1023)",
      "license": "CC-BY-NC-4.0 (http://creativecommons.org/licenses/by-nc/4.0/)",
      "source": "https://sketchfab.com/models/ce248709dea64ec1844e8dd9b614f7c0",
      "title": "Drone"
    },
    "generator": "Sketchfab-3.19.4",
    "version": "2.0"
  },
  "bufferViews": [
    {
      "buffer": 0,
      "byteLength": 23832,
      "byteOffset": 0,
      "name": "floatBufferViews",
      "target": 34963
    },
    {
      "buffer": 0,
      "byteLength": 15024,
      "byteOffset": 23832,
      "byteStride": 8,
      "name": "floatBufferViews",
      "target": 34962
    },
    {
      "buffer": 0,
      "byteLength": 45072,
      "byteOffset": 38856,
      "byteStride": 12,
      "name": "floatBufferViews",
      "target": 34962
    },
    {
      "buffer": 0,
      "byteLength": 30048,
      "byteOffset": 83928,
      "byteStride": 16,
      "name": "floatBufferViews",
      "target": 34962
    }
  ],
  "buffers": [
    {
      "byteLength": 113976,
      "uri": "scene.bin"
    }
  ],
  "images": [
    {
      "uri": "textures/Material_5_baseColor.png"
    },
    {
      "uri": "textures/Material_5_emissive.png"
    },
    {
      "uri": "textures/Material_4_emissive.png"
    },
    {
      "uri": "textures/Material_4_metallicRoughness.png"
    },
    {
      "uri": "textures/Material_4_normal.png"
    },
    {
      "uri": "textures/Material_4_baseColor.png"
    }
  ],
  "materials": [
    {
      "doubleSided": true,
      "emissiveFactor": [
        1,
        1,
        1
      ],
      "emissiveTexture": {
        "index": 2,
        "texCoord": 0
      },
      "name": "Material_4",
      "normalTexture": {
        "index": 4,
        "scale": 1,
        "texCoord": 0
      },
      "occlusionTexture": {
        "index": 3,
        "strength": 1,
        "texCoord": 0
      },
      "pbrMetallicRoughness": {
        "baseColorFactor": [
          1,
          1,
          1,
          1
        ],
        "baseColorTexture": {
          "index": 5,
          "texCoord": 0
        },
        "metallicFactor": 1,
        "metallicRoughnessTexture": {
          "index": 3,
          "texCoord": 0
        },
        "roughnessFactor": 1
      }
    },
    {
      "alphaMode": "BLEND",
      "doubleSided": true,
      "emissiveFactor": [
        1,
        1,
        1
      ],
      "emissiveTexture": {
        "index": 1,
        "texCoord": 0
      },
      "name": "Material_5",
      "pbrMetallicRoughness": {
        "baseColorFactor": [
          1,
          1,
          1,
          0.56000000000000005
        ],
        "baseColorTexture": {
          "index": 0,
          "texCoord": 0
        },
        "metallicFactor": 0,
        "roughnessFactor": 0.59999999999999998
      }
    }
  ],
  "meshes": [
    {
      "name": "Box001_Material #4_0",
      "primitives": [
        {
          "attributes": {
            "NORMAL": 1,
            "POSITION": 0,
            "TANGENT": 2,
            "TEXCOORD_0": 3
          },
          "indices": 4,
          "material": 0,
          "mode": 4
        }
      ]
    },
    {
      "name": "Object002_Material #5_0",
      "primitives": [
        {
          "attributes": {
            "NORMAL": 6,
            "POSITION": 5,
            "TANGENT": 7,
            "TEXCOORD_0": 8
          },
          "indices": 9,
          "material": 1,
          "mode": 4
        }
      ]
    }
  ],
  "nodes": [
    {
      "children": [
        1
      ],
      "name": "RootNode (gltf orientation matrix)",
      "rotation": [
        -0.70710678118654746,
        -0,
        -0,
        0.70710678118654757
      ]
    },
    {
      "children": [
        2
      ],
      "name": "RootNode (model correction matrix)"
    },
    {
      "children": [
        3
      ],
      "matrix": [
        1,
        0,
        0,
        0,
        0,
        0,
        1,
        0,
        0,
        -1,
        0,
        0,
        0,
        0,
        0,
        1
      ],
      "name": "drone.FBX"
    },
    {
      "children": [
        4,
        6
      ],
      "name": "RootNode"
    },
    {
      "children": [
        5
      ],
      "matrix": [
        1.6292068460987963e-07,
        0,
        0.99999999999998668,
        0,
        -4.3711388225504991e-08,
        0.999999999999999,
        7.1214892959639279e-15,
        0,
        -0.99999999999998579,
        -4.3711388225505573e-08,
        1.6292068460987963e-07,
        0,
        -1.5982243084522452e-08,
        63.802558898925781,
        0.36563390493392944,
        1
      ],
      "name": "Box001"
    },
    {
      "mesh": 0,
      "name": "Box001_Material #4_0"
    },
    {
      "children": [
        7
      ],
      "matrix": [
        1.6292068449885733e-07,
        -1.3234889800848443e-23,
        0.99999999999998668,
        0,
        -1.6292068488171135e-07,
        0.99999999999998668,
        2.6543149516178714e-14,
        0,
        -0.99999999999997335,
        -1.6292068488171352e-07,
        1.6292068449885733e-07,
        0,
        -1.5982243084522452e-08,
        63.802558898925781,
        0.36563390493392944,
        1
      ],
      "name": "Object002"
    },
    {
      "mesh": 1,
      "name": "Object002_Material #5_0"
    }
  ],
  "samplers": [
    {
      "magFilter": 9729,
      "minFilter": 9987,
      "wrapS": 10497,
      "wrapT": 10497
    }
  ],
  "scene": 0,
  "scenes": [
    {
      "name": "OSG_Scene",
      "nodes": [
        0
      ]
    }
  ],
  "textures": [
    {
      "sampler": 0,
      "source": 0
    },
    {
      "sampler": 0,
      "source": 1
    },
    {
      "sampler": 0,
      "source": 2
    },
    {
      "sampler": 0,
      "source": 3
    },
    {
      "sampler": 0,
      "source": 4
    },
    {
      "sampler": 0,
      "source": 5
    }
  ]
}

