<?xml version="1.0" encoding="utf-8"?>
<!-- Generator: Adobe Illustrator 16.0.0, SVG Export Plug-In . SVG Version: 6.00 Build 0)  -->
<!DOCTYPE svg PUBLIC "-//W3C//DTD SVG 1.1//EN" "http://www.w3.org/Graphics/SVG/1.1/DTD/svg11.dtd">
<svg version="1.1" id="Capa_1" xmlns="http://www.w3.org/2000/svg" xmlns:xlink="http://www.w3.org/1999/xlink" x="0px" y="0px"
	 width="24px" height="24px" viewBox="0 0 24 24" enable-background="new 0 0 24 24" xml:space="preserve">
<path fill="#E8003C" d="M16.5,3c-1.74,0-3.41,0.81-4.5,2.09C10.91,3.81,9.24,3,7.5,3C4.42,3,2,5.42,2,8.5
	c0,3.779,3.4,6.859,8.55,11.54L12,21.35l1.45-1.32C18.6,15.359,22,12.279,22,8.5C22,5.42,19.58,3,16.5,3z M12.1,18.55L12,18.65
	l-0.1-0.101C7.14,14.24,4,11.39,4,8.5C4,6.5,5.5,5,7.5,5c1.54,0,3.04,0.99,3.57,2.36h1.87C13.46,5.99,14.96,5,16.5,5
	c2,0,3.5,1.5,3.5,3.5C20,11.39,16.859,14.24,12.1,18.55z"/>
</svg>
