<?xml version="1.0" encoding="utf-8"?>
<!-- Generator: Adobe Illustrator 16.0.0, SVG Export Plug-In . SVG Version: 6.00 Build 0)  -->
<!DOCTYPE svg PUBLIC "-//W3C//DTD SVG 1.1//EN" "http://www.w3.org/Graphics/SVG/1.1/DTD/svg11.dtd">
<svg version="1.1" id="Capa_1" xmlns="http://www.w3.org/2000/svg" xmlns:xlink="http://www.w3.org/1999/xlink" x="0px" y="0px"
	 width="24px" height="24px" viewBox="0 0 24 24" enable-background="new 0 0 24 24" xml:space="preserve">
<path fill="none" d="M0,0h24v24H0V0z"/>
<path fill="#E8003C" d="M11.57,13.16c-1.36,0.279-2.17,1.16-2.17,2.41c0,1.34,1.11,2.42,2.49,2.42c2.049,0,3.709-1.66,3.709-3.711
	c0-1.069-0.149-2.119-0.459-3.119C14.35,12.23,12.94,12.88,11.57,13.16z M13.5,0.67c0,0,0.74,2.65,0.74,4.8
	c0,2.06-1.35,3.73-3.41,3.73C8.76,9.2,7.2,7.53,7.2,5.47l0.03-0.36C5.21,7.51,4,10.62,4,14c0,4.42,3.58,8,8,8s8-3.58,8-8
	C20,8.61,17.41,3.8,13.5,0.67z M12,20c-3.31,0-6-2.689-6-6c0-1.529,0.3-3.04,0.86-4.43c1.01,1.01,2.41,1.63,3.97,1.63
	c2.66,0,4.75-1.83,5.279-4.43C17.34,8.97,18,11.44,18,14C18,17.311,15.311,20,12,20z"/>
</svg>
